<?xml version="1.0" encoding="utf-8"?>
<!-- Generator: Adobe Illustrator 15.0.0, SVG Export Plug-In . SVG Version: 6.00 Build 0)  -->
<!DOCTYPE svg PUBLIC "-//W3C//DTD SVG 1.1//EN" "http://www.w3.org/Graphics/SVG/1.1/DTD/svg11.dtd">
<svg version="1.1" id="Layer_1" xmlns="http://www.w3.org/2000/svg" xmlns:xlink="http://www.w3.org/1999/xlink" x="0px" y="0px"
	 width="968.181px" height="968.181px" viewBox="0 0 968.181 968.181" enable-background="new 0 0 968.181 968.181"
	 xml:space="preserve">
<rect y="-4.545" fill-rule="evenodd" clip-rule="evenodd" fill="#FAFBFB" width="968.181" height="968.181"/>
<g id="kki9cR_1_">
	<g>
		<path fill-rule="evenodd" clip-rule="evenodd" fill="#FFFFFF" d="M460.091,395.635c-60.787,8.798-107.297,45.816-111,118
			c-1.043,20.335-3.084,46.35,2,66c2.347,9.069,8.375,16.058,13,25c4.083,7.893,10.727,14.488,14,23c2.443,6.354,3.437,15.985,6,24
			c4.299,13.441,12.333,25.295,8,38c-2.544,7.459-11.248,8.831-20,15c-10.181,7.176-20.06,18.83-27,23
			c-37.846,22.74-100.312,25.35-144,42c-21.99,52.677-31.544,117.79-44,180c0-184.669,0-369.328,0-554
			C258.09,395.635,359.092,395.635,460.091,395.635z"/>
		<path fill-rule="evenodd" clip-rule="evenodd" d="M460.091,395.635c6,0,12,0,18,0c9.834,0.176,18.693,11.296,29,15
			c9.551,3.433,18.737,3.875,27,7c15.922,6.021,30.132,16.061,37,32c9.116,21.157,2.001,50.969,7,77c1.407,7.33,5.576,13.918,6,20
			c1.014,14.526-4.135,28.461-9,39c-4.524,9.801-13.616,17.513-18,28c-2.535,6.064-3.558,16.033-7,25
			c-5.744,14.962-14.477,35.179-5,54c4.011,7.966,13.917,10.567,21,17c10.131,9.2,17.974,23.604,28,29
			c10.068,5.42,23.535,8.42,36,13c30.444,11.188,82.854,23.452,95,52c2.947,6.926,2.167,15.409,4,23c2.194,9.087,8.217,16.817,11,26
			c9.522,31.413,9.006,66.333,17,107c0,1.332,0,2.666,0,4c-200,0-400.001,0-600,0c0-4.668,0-9.334,0-14
			c12.456-62.211,22.01-127.324,44-180c43.688-16.65,106.154-19.26,144-42c6.94-4.17,16.819-15.824,27-23
			c8.752-6.169,17.456-7.541,20-15c4.333-12.705-3.701-24.559-8-38c-2.563-8.015-3.557-17.646-6-24c-3.273-8.512-9.917-15.107-14-23
			c-4.625-8.942-10.653-15.931-13-25c-5.084-19.65-3.043-45.665-2-66C352.794,441.452,399.304,404.433,460.091,395.635z"/>
		<path fill-rule="evenodd" clip-rule="evenodd" fill="#FFFFFF" d="M478.091,395.635c92.999,0,186.001,0,279,0
			c0,188.002,0,375.996,0,564c-7.994-40.668-7.478-75.588-17-107c-2.783-9.183-8.806-16.913-11-26c-1.833-7.591-1.053-16.074-4-23
			c-12.146-28.548-64.556-40.812-95-52c-12.465-4.58-25.932-7.58-36-13c-10.026-5.396-17.869-19.8-28-29
			c-7.083-6.433-16.989-9.034-21-17c-9.477-18.821-0.744-39.038,5-54c3.442-8.967,4.465-18.936,7-25
			c4.384-10.487,13.476-18.199,18-28c4.865-10.539,10.014-24.474,9-39c-0.424-6.082-4.593-12.67-6-20
			c-4.999-26.031,2.116-55.843-7-77c-6.868-15.939-21.078-25.979-37-32c-8.263-3.125-17.449-3.567-27-7
			C496.784,406.931,487.925,395.811,478.091,395.635z"/>
	</g>
</g>
<rect fill-rule="evenodd" clip-rule="evenodd" fill="#FAFBFB" width="968.181" height="968.181"/>
<g id="kki9cR_2_">
	<g>
		<path fill-rule="evenodd" clip-rule="evenodd" fill="#E2E2E2" d="M488.065,215.667c7.949,0,15.898,0,23.847,0
			c13.029,0.232,24.767,14.965,38.421,19.872c12.653,4.548,24.824,5.135,35.771,9.274c21.094,7.977,39.92,21.278,49.019,42.395
			c12.078,28.03,2.651,67.526,9.274,102.014c1.864,9.711,7.388,18.439,7.949,26.497c1.343,19.245-5.479,37.707-11.924,51.669
			c-5.994,12.985-18.039,23.202-23.848,37.096c-3.358,8.035-4.713,21.242-9.273,33.121c-7.61,19.822-19.18,46.606-6.624,71.542
			c5.313,10.554,18.438,14,27.821,22.522c13.422,12.189,23.812,31.271,37.096,38.421c13.339,7.181,31.181,11.155,47.694,17.223
			c40.335,14.822,109.771,31.071,125.861,68.893c3.904,9.176,2.871,20.415,5.299,30.472c2.907,12.038,10.887,22.28,14.573,34.446
			c12.616,41.616,11.932,87.88,22.522,141.759c0,1.764,0,3.531,0,5.299c-264.97,0-529.94,0-794.909,0c0-6.186,0-12.367,0-18.549
			c16.502-82.42,29.16-168.683,58.294-238.472c57.879-22.06,140.638-25.517,190.778-55.644c9.194-5.524,22.282-20.965,35.771-30.472
			c11.595-8.173,23.126-9.991,26.497-19.873c5.741-16.832-4.903-32.536-10.599-50.344c-3.396-10.618-4.712-23.378-7.949-31.797
			c-4.336-11.276-13.14-20.015-18.548-30.472c-6.128-11.847-14.114-21.105-17.224-33.121c-6.735-26.033-4.031-60.498-2.649-87.439
			C345.913,276.367,407.531,227.323,488.065,215.667z"/>
	</g>
</g>
</svg>
